<svg width="259" height="104" viewBox="0 0 259 104" fill="none" xmlns="http://www.w3.org/2000/svg">
<rect x="0.5" y="0.5" width="258" height="103" rx="51.5" fill="#0B0B0B" stroke="#121212"/>
<path d="M140.125 44V31.85H142.78C143.59 31.85 144.22 32.005 144.67 32.315C145.12 32.625 145.435 33.045 145.615 33.575C145.795 34.105 145.885 34.695 145.885 35.345V40.385C145.885 41.075 145.795 41.695 145.615 42.245C145.435 42.785 145.125 43.215 144.685 43.535C144.255 43.845 143.645 44 142.855 44H140.125ZM140.935 43.355H142.81C143.47 43.355 143.96 43.215 144.28 42.935C144.6 42.655 144.81 42.285 144.91 41.825C145.01 41.355 145.06 40.845 145.06 40.295V35.405C145.06 34.815 145 34.305 144.88 33.875C144.76 33.435 144.535 33.1 144.205 32.87C143.875 32.63 143.4 32.51 142.78 32.51H140.935V43.355ZM147.859 44V31.85H152.059V32.51H148.684V37.385H151.459V38.015H148.684V43.355H152.104V44H147.859ZM156.193 44.15C155.553 44.15 155.023 44.02 154.603 43.76C154.193 43.5 153.878 43.135 153.658 42.665C153.448 42.195 153.318 41.64 153.268 41L153.973 40.775C154.043 41.305 154.148 41.775 154.288 42.185C154.438 42.595 154.663 42.915 154.963 43.145C155.263 43.365 155.678 43.475 156.208 43.475C156.808 43.475 157.278 43.325 157.618 43.025C157.968 42.725 158.143 42.225 158.143 41.525C158.143 40.995 158.003 40.52 157.723 40.1C157.453 39.67 157.068 39.21 156.568 38.72L154.348 36.515C153.978 36.135 153.708 35.755 153.538 35.375C153.368 34.995 153.283 34.605 153.283 34.205C153.283 33.405 153.528 32.79 154.018 32.36C154.518 31.93 155.163 31.715 155.953 31.715C156.363 31.715 156.733 31.77 157.063 31.88C157.393 31.98 157.678 32.15 157.918 32.39C158.168 32.62 158.363 32.93 158.503 33.32C158.643 33.71 158.733 34.19 158.773 34.76L158.083 34.925C158.043 34.355 157.948 33.88 157.798 33.5C157.648 33.12 157.428 32.84 157.138 32.66C156.848 32.47 156.458 32.375 155.968 32.375C155.418 32.375 154.958 32.515 154.588 32.795C154.218 33.075 154.033 33.525 154.033 34.145C154.033 34.455 154.093 34.755 154.213 35.045C154.343 35.335 154.578 35.65 154.918 35.99L157.108 38.15C157.598 38.63 158.018 39.145 158.368 39.695C158.728 40.235 158.908 40.83 158.908 41.48C158.908 42.09 158.793 42.595 158.563 42.995C158.333 43.385 158.013 43.675 157.603 43.865C157.193 44.055 156.723 44.15 156.193 44.15ZM160.56 44V31.85H161.37V44H160.56ZM166.291 44.165C165.521 44.165 164.926 44.01 164.506 43.7C164.086 43.38 163.791 42.94 163.621 42.38C163.461 41.82 163.381 41.185 163.381 40.475V35.315C163.381 34.605 163.461 33.98 163.621 33.44C163.791 32.9 164.091 32.48 164.521 32.18C164.951 31.87 165.556 31.715 166.336 31.715C167.046 31.715 167.601 31.855 168.001 32.135C168.411 32.415 168.701 32.815 168.871 33.335C169.051 33.855 169.141 34.47 169.141 35.18V35.6H168.361V35.135C168.361 34.535 168.301 34.035 168.181 33.635C168.061 33.225 167.856 32.915 167.566 32.705C167.276 32.495 166.866 32.39 166.336 32.39C165.746 32.39 165.296 32.515 164.986 32.765C164.676 33.005 164.466 33.345 164.356 33.785C164.256 34.215 164.206 34.715 164.206 35.285V40.58C164.206 41.17 164.266 41.685 164.386 42.125C164.506 42.555 164.721 42.89 165.031 43.13C165.341 43.37 165.781 43.49 166.351 43.49C166.891 43.49 167.306 43.375 167.596 43.145C167.896 42.915 168.101 42.585 168.211 42.155C168.331 41.725 168.391 41.215 168.391 40.625V38.84H166.456V38.21H169.156V44H168.631L168.511 42.635C168.361 43.105 168.111 43.48 167.761 43.76C167.421 44.03 166.931 44.165 166.291 44.165ZM171.282 44V31.85H171.927L176.052 42.11V31.85H176.772V44H176.127L172.002 33.725V44H171.282ZM184.274 44.15C183.634 44.15 183.104 44.02 182.684 43.76C182.274 43.5 181.959 43.135 181.739 42.665C181.529 42.195 181.399 41.64 181.349 41L182.054 40.775C182.124 41.305 182.229 41.775 182.369 42.185C182.519 42.595 182.744 42.915 183.044 43.145C183.344 43.365 183.759 43.475 184.289 43.475C184.889 43.475 185.359 43.325 185.699 43.025C186.049 42.725 186.224 42.225 186.224 41.525C186.224 40.995 186.084 40.52 185.804 40.1C185.534 39.67 185.149 39.21 184.649 38.72L182.429 36.515C182.059 36.135 181.789 35.755 181.619 35.375C181.449 34.995 181.364 34.605 181.364 34.205C181.364 33.405 181.609 32.79 182.099 32.36C182.599 31.93 183.244 31.715 184.034 31.715C184.444 31.715 184.814 31.77 185.144 31.88C185.474 31.98 185.759 32.15 185.999 32.39C186.249 32.62 186.444 32.93 186.584 33.32C186.724 33.71 186.814 34.19 186.854 34.76L186.164 34.925C186.124 34.355 186.029 33.88 185.879 33.5C185.729 33.12 185.509 32.84 185.219 32.66C184.929 32.47 184.539 32.375 184.049 32.375C183.499 32.375 183.039 32.515 182.669 32.795C182.299 33.075 182.114 33.525 182.114 34.145C182.114 34.455 182.174 34.755 182.294 35.045C182.424 35.335 182.659 35.65 182.999 35.99L185.189 38.15C185.679 38.63 186.099 39.145 186.449 39.695C186.809 40.235 186.989 40.83 186.989 41.48C186.989 42.09 186.874 42.595 186.644 42.995C186.414 43.385 186.094 43.675 185.684 43.865C185.274 44.055 184.804 44.15 184.274 44.15ZM190.606 44V40.115L187.801 31.85H188.641L191.026 39.14L193.291 31.85H194.131L191.416 40.115V44H190.606ZM197.985 44.15C197.345 44.15 196.815 44.02 196.395 43.76C195.985 43.5 195.67 43.135 195.45 42.665C195.24 42.195 195.11 41.64 195.06 41L195.765 40.775C195.835 41.305 195.94 41.775 196.08 42.185C196.23 42.595 196.455 42.915 196.755 43.145C197.055 43.365 197.47 43.475 198 43.475C198.6 43.475 199.07 43.325 199.41 43.025C199.76 42.725 199.935 42.225 199.935 41.525C199.935 40.995 199.795 40.52 199.515 40.1C199.245 39.67 198.86 39.21 198.36 38.72L196.14 36.515C195.77 36.135 195.5 35.755 195.33 35.375C195.16 34.995 195.075 34.605 195.075 34.205C195.075 33.405 195.32 32.79 195.81 32.36C196.31 31.93 196.955 31.715 197.745 31.715C198.155 31.715 198.525 31.77 198.855 31.88C199.185 31.98 199.47 32.15 199.71 32.39C199.96 32.62 200.155 32.93 200.295 33.32C200.435 33.71 200.525 34.19 200.565 34.76L199.875 34.925C199.835 34.355 199.74 33.88 199.59 33.5C199.44 33.12 199.22 32.84 198.93 32.66C198.64 32.47 198.25 32.375 197.76 32.375C197.21 32.375 196.75 32.515 196.38 32.795C196.01 33.075 195.825 33.525 195.825 34.145C195.825 34.455 195.885 34.755 196.005 35.045C196.135 35.335 196.37 35.65 196.71 35.99L198.9 38.15C199.39 38.63 199.81 39.145 200.16 39.695C200.52 40.235 200.7 40.83 200.7 41.48C200.7 42.09 200.585 42.595 200.355 42.995C200.125 43.385 199.805 43.675 199.395 43.865C198.985 44.055 198.515 44.15 197.985 44.15ZM203.942 44V32.51H201.512V31.85H207.122V32.51H204.752V44H203.942ZM208.533 44V31.85H212.733V32.51H209.358V37.385H212.133V38.015H209.358V43.355H212.778V44H208.533ZM214.287 44L214.647 31.85H215.457L218.022 42.815L220.632 31.85H221.472L221.817 44H221.112L220.812 33.815L218.337 44H217.737L215.292 33.83L214.992 44H214.287Z" fill="white"/>
<path d="M113.132 74L108.302 39.98H113.51L116.324 62.03L119.852 40.064H124.094L127.706 62.03L130.478 39.98H135.602L130.856 74H125.816L122.036 51.194L118.298 74H113.132ZM139.252 80.594V76.478C140.232 76.478 141.03 76.422 141.646 76.31C142.262 76.198 142.71 76.002 142.99 75.722C143.27 75.442 143.41 75.05 143.41 74.546C143.41 74.182 143.312 73.608 143.116 72.824C142.948 72.04 142.752 71.186 142.528 70.262L137.194 49.724H142.738L145.888 65.726L148.618 49.724H154.12L148.45 74.966C148.142 76.394 147.624 77.514 146.896 78.326C146.168 79.138 145.258 79.712 144.166 80.048C143.074 80.412 141.8 80.594 140.344 80.594H139.252ZM159.912 74L155.082 49.724H160.668L163.146 67.154L165.582 49.724H171.084L166.254 74H159.912ZM181.093 74.378C179.273 74.378 177.789 74.042 176.641 73.37C175.493 72.67 174.639 71.662 174.079 70.346C173.547 69.002 173.281 67.392 173.281 65.516V58.208C173.281 56.276 173.547 54.652 174.079 53.336C174.639 52.02 175.493 51.026 176.641 50.354C177.817 49.682 179.301 49.346 181.093 49.346C183.025 49.346 184.523 49.71 185.587 50.438C186.679 51.166 187.449 52.23 187.897 53.63C188.373 55.002 188.611 56.682 188.611 58.67V62.114H178.951V66.902C178.951 67.686 179.021 68.33 179.161 68.834C179.329 69.338 179.581 69.702 179.917 69.926C180.253 70.15 180.659 70.262 181.135 70.262C181.639 70.262 182.045 70.15 182.353 69.926C182.661 69.674 182.885 69.324 183.025 68.876C183.165 68.4 183.235 67.812 183.235 67.112V65.096H188.569V66.734C188.569 69.198 187.953 71.088 186.721 72.404C185.489 73.72 183.613 74.378 181.093 74.378ZM178.951 59.3H183.235V56.99C183.235 56.15 183.165 55.478 183.025 54.974C182.885 54.442 182.661 54.064 182.353 53.84C182.045 53.588 181.611 53.462 181.051 53.462C180.547 53.462 180.141 53.588 179.833 53.84C179.525 54.092 179.301 54.512 179.161 55.1C179.021 55.688 178.951 56.528 178.951 57.62V59.3ZM192.613 74V49.724H198.325V53.462C199.165 52.034 200.005 51.012 200.845 50.396C201.685 49.752 202.609 49.43 203.617 49.43C203.785 49.43 203.925 49.444 204.037 49.472C204.177 49.472 204.331 49.486 204.499 49.514V55.436C204.163 55.296 203.785 55.184 203.365 55.1C202.973 54.988 202.567 54.932 202.147 54.932C201.391 54.932 200.705 55.114 200.089 55.478C199.473 55.842 198.885 56.444 198.325 57.284V74H192.613ZM207.293 74V49.724H213.005V52.16C213.873 51.32 214.783 50.648 215.735 50.144C216.715 49.612 217.765 49.346 218.885 49.346C219.893 49.346 220.691 49.598 221.279 50.102C221.867 50.578 222.301 51.222 222.581 52.034C222.861 52.846 223.001 53.728 223.001 54.68V74H217.289V55.814C217.289 55.086 217.177 54.526 216.953 54.134C216.729 53.742 216.295 53.546 215.651 53.546C215.259 53.546 214.825 53.658 214.349 53.882C213.901 54.106 213.453 54.386 213.005 54.722V74H207.293Z" fill="#D91E26"/>
<path d="M77.8517 53.006C76.2364 55.0142 74.9054 57.536 73.9173 59.8964C73.3035 60.2033 73.5426 64.0315 73.5426 64.7675C73.5426 66.0146 73.507 67.268 73.5426 68.5145C73.6132 70.984 74.9419 73.2969 75.031 75.7484C75.0995 77.6317 75.0592 79.3604 76.2904 80.9214C77.71 82.7212 79.8119 84.2207 81.7653 85.3762C82.5846 85.8609 82.5355 85.7212 82.5355 84.9598C82.5355 80.3175 84.2885 75.937 86.4282 71.8869C87.3241 70.1911 88.4241 68.2748 89.9359 67.099C91.7328 65.7014 93.8414 64.7008 95.6501 63.2271C96.9743 62.1481 98.3331 61.2466 98.9391 59.6882C99.766 57.562 99.1658 54.5951 98.7934 52.4023C98.5266 50.8311 98.2215 48.928 97.4299 47.5208C96.1351 45.2188 95.6855 42.5092 94.7133 40.0787C94.0985 38.5416 93.2601 37.1691 92.6421 35.6239C91.9118 33.7982 90.4462 32.6629 89.5091 31.0442C88.6886 29.627 87.2478 28.6024 86.1888 27.3805C84.6802 25.6398 83.5399 23.5484 82.244 21.6767C81.2446 20.2331 80.1251 18.7042 78.8821 17.4613C77.8654 16.4446 77.1551 15.186 76.3112 14.0369C75.2683 12.6167 73.7348 11.0832 72.4185 9.91515C71.525 9.12236 70.2752 8 69.0254 8C68.1197 8 72.7291 14.1533 73.3553 13.4228C74.1211 15.0396 75.0372 17.0062 75.312 18.7727C75.5629 20.3852 75.1305 21.4107 74.6667 22.884C74.4432 23.5942 73.9293 24.3466 74.573 24.8616C75.0517 25.2446 75.7932 25.6433 76.1759 26.0898C77.1663 27.2453 79.923 26.9225 81.224 27.4429C81.692 27.6301 81.9734 27.2898 81.9734 27.9529C81.9734 28.7388 81.247 29.9247 80.8493 30.5655C80.1602 31.6757 79.2125 32.6788 78.2264 33.5214C77.9036 33.7973 76.6883 34.6805 76.7692 35.166C76.8363 35.5685 77.154 36.0781 77.2896 36.4774C77.5705 37.3044 77.7212 37.8849 78.5074 38.2573C79.0904 38.5334 78.801 38.7257 78.3201 38.7257C76.0377 38.7257 73.7644 39.6746 71.565 40.2245C71.3791 40.2709 71.9242 40.3855 72.0542 40.5263C72.4695 40.9762 72.5831 41.6713 72.814 42.2229C73.3152 43.4201 73.9175 44.5649 74.9477 45.3662C75.4952 45.792 76.627 45.3312 77.2896 45.6993C77.8587 46.0155 78.2264 47.3128 78.2264 47.9059C78.2264 48.7067 78.5127 49.3847 78.5907 50.1645C78.6386 50.6431 78.9175 51.5914 78.7468 52.0276C78.6055 52.3887 78.093 52.706 77.8517 53.006Z" fill="#5A5A5A"/>
<path d="M74.6048 88.337C73.8857 87.6503 73.1839 86.8167 72.2009 86.6326C71.5301 86.6326 76.9248 93.6426 76.2378 93.8022C75.3868 93.9999 75.2337 94.0265 74.55 93.4011C72.9711 91.9569 70.6398 91.2036 68.8288 90.09C67.6619 89.3724 66.843 88.4859 65.475 88.7609C64.8673 88.8831 63.6697 89.4081 63.1186 88.864C62.5143 88.2674 62.1745 87.6203 61.9787 86.8017C61.6538 85.4431 61.5403 83.8708 61.5403 82.4708L60.0498 80.2939C58.1234 78.2801 55.9628 76.328 56.9042 73.1788C57.4816 71.2474 58.2429 68.8881 57.6933 66.82C57.4436 65.8803 57.4574 65.0954 56.7617 64.3681C55.8678 63.4336 54.7946 62.6983 53.6491 62.0995C49.9486 60.1653 47.1809 60.7969 43.2151 61.3892C40.7816 61.7526 38.158 61.435 35.6965 61.435C35.4779 61.435 33.751 61.3957 34.0305 61.2288C34.6279 60.8719 35.0823 60.0948 35.6965 59.682C36.2574 59.305 37.0685 59.0477 37.5706 58.6394C38.3306 58.0215 39.1707 57.3963 40.0366 56.9437C41.0226 56.4283 41.3359 54.8467 42.0095 54.0106C42.7022 53.1507 42.8826 51.32 43.0397 50.2526C43.2623 48.7398 43.6276 47.1494 43.9384 45.6467C44.4204 43.3164 43.3633 40.3301 42.2944 38.3827C41.6531 37.2142 41.1153 36.371 40.1901 35.4038C39.1036 34.268 37.2157 33.0601 37.0774 31.3249C36.9953 30.2951 39.8016 29.8242 39.4229 28.7356C39.2051 28.1096 38.4341 27.3862 37.9652 26.994C37.5596 26.6548 34.9584 25.6503 36.0033 24.714C37.2014 23.6405 37.7222 22.0276 39.0064 21.0133C40.1878 20.0802 41.4743 19.6047 42.7986 18.9509C44.3832 18.1687 46.2635 20.0039 47.6868 20.555C48.6094 20.9122 49.6217 21.4747 50.5145 21.9413C51.8831 22.6567 53.4047 22.8593 54.7341 23.6829C55.8324 24.3632 57.1095 24.782 58.2962 25.2525C61.5223 26.5317 64.2537 29.2461 67.0861 31.2447C70.646 33.7567 73.2184 37.213 75.9419 40.594C77.1853 42.1375 79.0095 43.3927 79.9752 45.1426C80.4186 45.946 80.684 46.9171 81.2795 47.6174C81.9015 48.349 82.347 49.0002 82.4303 50.0234C82.7362 53.7809 81.8718 57.7844 80.7205 61.2746C79.5233 64.9039 77.8449 68.2164 77.9147 72.1591C77.9568 74.534 78.4927 77.5844 79.7998 79.5721C80.5411 80.6992 81.8254 81.426 82.7371 82.3791C83.1649 82.8263 83.5008 83.4117 83.9208 83.88C84.3219 84.3272 84.6404 84.0313 84.9401 84.6821C85.8702 86.7014 87.1451 88.5489 87.7788 90.7201C88.1558 92.0121 88.2374 94.8389 87.1869 95.8759C86.2092 96.8412 84.6535 96.4946 83.3948 96.4946C82.8447 96.4946 81.7717 96.698 81.2685 96.4488C79.9378 95.7899 79.4656 93.9339 78.5066 92.8741C77.1681 91.395 76.0728 89.739 74.6048 88.337Z" fill="#343434"/>
</svg>
